<svg width="275" height="356" viewBox="0 0 275 356" fill="none" xmlns="http://www.w3.org/2000/svg">
<path d="M44 59.5L41 91L101.5 76L44 59.5Z" fill="#F6F6F6"/>
<path d="M118.5 275L198.5 244L172 322.5L118.5 275Z" fill="#F6F6F6"/>
<path d="M17 40L96.5 65.5L92.5 53L17 40Z" fill="#73757B"/>
<path d="M118.5 275L77.5 226.5L198.5 244L118.5 275Z" fill="#DEDEDE"/>
<path d="M167.5 200.5L84.5 215L107.5 176L167.5 200.5Z" fill="#363840"/>
<path d="M197 212.5L149.5 182.5H116.5L197 212.5Z" fill="#F5F3EC"/>
<path d="M201 187L191 182.5L198 214L201 187Z" fill="#F5F3EC"/>
<path d="M267.5 307.5L242.5 275L253.5 270.5L267.5 307.5Z" fill="#2E2F39"/>
<path d="M100.5 61L103.5 76.5L19 53L100.5 61Z" fill="#8F9199"/>
<path d="M245.5 268L247 318L231 277.5L245.5 268Z" fill="#202634"/>
<path d="M191 182.5L153.5 150.5L61 182.5H191Z" fill="#4C5056"/>
<path d="M226.5 338.5L243 271L218 257L226.5 338.5Z" fill="#131B26"/>
<path d="M198.5 244L84.5 215L77.5 226.5L198.5 244Z" fill="#A2A2A2"/>
<path d="M204 353L232.5 265L204 248V353Z" fill="#2B2B2D"/>
<path d="M198.5 244L84.5 215L156.5 202.5L198.5 244Z" fill="#C3C3C3"/>
<path d="M26.5 23.5L91 47.5L93.5 57.5L26.5 23.5Z" fill="#4F5460"/>
<path d="M37.5 12L101 45.5L90.5 48.5L37.5 12Z" fill="#393D46"/>
<path d="M54 7L97.5 46.5L111.5 43L54 7Z" fill="#3F4455"/>
<path d="M191 182.5H151L198 213.5L191 182.5Z" fill="#171B20"/>
<path d="M151 182.5H116.5L198 213.5L151 182.5Z" fill="#302E3A"/>
<path d="M119 41L100.5 45.5L73 0L119 41Z" fill="#333C4D"/>
<path d="M229.5 254.5L183.5 355.5L198.5 244L229.5 254.5Z" fill="#473D3F"/>
<path d="M199 244.5L148.5 194.5L198 213.5L199 244.5Z" fill="#25232D"/>
<path d="M233 215.5L225 211L231 210.5L233 215.5Z" fill="#D9D9D9"/>
<path d="M231 210.5L199 206L200.5 213L231 210.5Z" fill="#292F39"/>
<path d="M201 187L199 206L231 210.5L201 187Z" fill="#3F4958"/>
<path d="M199 206L200.5 213L198 213.5L199 206Z" fill="#7B7775"/>
<path d="M104 182.5L45.5 280.5L6.5 236L104 182.5Z" fill="#252A34"/>
<path d="M89.5 150L72 175L100.5 76L89.5 150Z" fill="#C3C3C3"/>
<path d="M41 91L72 175L100.5 76L41 91Z" fill="#E7E7E7"/>
<path d="M100.5 76L89.5 150.5L115 114.5L100.5 76Z" fill="#CECECE"/>
<path d="M117.5 163.5L125 144L68 181L117.5 163.5Z" fill="#C3C3C3"/>
<path d="M146.5 83L168 163L154 151.5L146.5 83Z" fill="#1D1D2A"/>
<path d="M125.5 144L115 114.5L66.5 182.5L125.5 144Z" fill="#E6E6E6"/>
<path d="M119 41L89.5 47.5L147 83.5L119 41Z" fill="#343443"/>
<path d="M154 151L117.5 163.5L147 83L154 151Z" fill="#3F3B4A"/>
<path d="M4 165.5L104.5 182.5L0 186.5L4 165.5Z" fill="#313A46"/>
<path d="M104 182.5L6.5 236.5L0 186L104 182.5Z" fill="#37404E"/>
<path d="M147 83.5L124.5 144.5L89.5 47.5L147 83.5Z" fill="#55565A"/>
<path d="M166 340.5L215.5 255L198.5 244L166 340.5Z" fill="#605256"/>
<path d="M275 292L198 213.5L198.5 244L275 292Z" fill="#14141E"/>
<path d="M172.5 321.5L119 275L198.5 244L172.5 321.5Z" fill="#F6F6F6"/>
</svg>
