<svg width="237" height="321" viewBox="0 0 237 321" fill="none" xmlns="http://www.w3.org/2000/svg">
<path d="M87 301.5L89 168.5L116 170L87 301.5Z" fill="#7D5642"/>
<path d="M216 93L145.5 162L126 85L216 93Z" fill="#D8997C"/>
<path d="M71.5 97.5L89 168.5L47 117.5L71.5 97.5Z" fill="#AC785C"/>
<path d="M181.5 72L215.5 93L126 85L181.5 72Z" fill="#FBB28F"/>
<path d="M30.5 52.5L0 58L35.5 18L30.5 52.5Z" fill="#645A5C"/>
<path d="M30.5 52.5L35.5 18L60.5 22L30.5 52.5Z" fill="#72676A"/>
<path d="M60.5 22L30.5 52.5L63 51.5L60.5 22Z" fill="#D7CABD"/>
<path d="M8.5 64.5L0 58L30.5 52.5L8.5 64.5Z" fill="#413C3D"/>
<path d="M30.5 65L8.5 64.5L30.5 52.5V65Z" fill="#383234"/>
<path d="M30.5 52.5V65L63 51.5L30.5 52.5Z" fill="#9A8A8F"/>
<path d="M42.5 60L30.5 65L39 124.5L42.5 60Z" fill="#FBFAFF"/>
<path d="M71.5 97.5L42.5 60L39 124.5L71.5 97.5Z" fill="#C38667"/>
<path d="M63 51.5L42.5 60L71.5 97.5L63 51.5Z" fill="#D39372"/>
<path d="M103 84.5L126 85L71.5 97.5L103 84.5Z" fill="#E7A484"/>
<path d="M114.5 170.5L89 168.5L121 119.5L114.5 170.5Z" fill="#99684F"/>
<path d="M122.5 130L71.5 97.5L126 85L122.5 130Z" fill="#D68262"/>
<path d="M117 126L71.5 97.5L89 168.5L117 126Z" fill="#DF8766"/>
<path d="M47.5 117.5L89 168.5L39 124.5L47.5 117.5Z" fill="#F6F4FC"/>
<path d="M162.5 158L182.5 123.5L139 163.5L162.5 158Z" fill="#F0EEF2"/>
<path d="M145.5 162L126 85L112 182.5L145.5 162Z" fill="#AF795E"/>
<path d="M139 136.5L145.5 162L150.5 157.5L139 136.5Z" fill="#F0EEF2"/>
<path d="M214.5 150.5L162.5 158L182.5 123.5L214.5 150.5Z" fill="#E09D7C"/>
<path d="M211 186.5L236 201.5L225 307.5L211 186.5Z" fill="#9E8878"/>
<path d="M215 120L236.5 137L216.052 93.112L215 120Z" fill="#8F4D21"/>
<path d="M216 93L214.5 150.5L182.5 123.5L216 93Z" fill="#F4C7B1"/>
<path d="M200.5 180.5L172.5 164L207 302L200.5 180.5Z" fill="#A89D8D"/>
<path d="M47 0.5L35.5 18L51 20.5L47 0.5Z" fill="#FFFDF7"/>
<path d="M68.5 0L57 22L50 20.5L68.5 0Z" fill="#FFFDF7"/>
<path d="M68.5 0L60.5 23L57 22L68.5 0Z" fill="#AF947F"/>
<path d="M211 186.5L225 307.5L200.5 180.5L211 186.5Z" fill="#C7BAA7"/>
<path d="M236 201.5L162.5 158L214.5 150.5L236 201.5Z" fill="#B48368"/>
<path d="M145.5 162L127.5 320.5L112 182.5L145.5 162Z" fill="#976850"/>
<path d="M131.5 240.5L127.5 321L139 219L131.5 240.5Z" fill="#B5A997"/>
</svg>
