<svg width="570" height="238" viewBox="0 0 570 238" fill="none" xmlns="http://www.w3.org/2000/svg">
<path d="M160 124L301.5 187L149 186L160 124Z" fill="#8EBCBC"/>
<path d="M32.5 114L240 61.5L57 184L32.5 114Z" fill="#D9EBEB"/>
<path d="M211.5 226L142.5 186H183.5L211.5 226Z" fill="#122025"/>
<path d="M103.5 84L90 98L179.5 55.5L103.5 84Z" fill="#FAFFFF"/>
<path d="M25.5 173.5L15.5 189.5L0 183L25.5 173.5Z" fill="#111619"/>
<path d="M160 124L55.5 160L182.5 83L160 124Z" fill="#D9EADF"/>
<path d="M490.5 92L496.5 66L461.5 92H490.5Z" fill="#233131"/>
<path d="M518 109L454 92H569.5L518 109Z" fill="#233131"/>
<path d="M496.5 66L490 92.5L551 56.5L496.5 66Z" fill="#233131"/>
<path d="M247 61.5L180.5 55.5L250.5 0L247 61.5Z" fill="#1C2529"/>
<path d="M160 124L149 186L55.5 160L160 124Z" fill="#80AFAD"/>
<path d="M321 66L301.5 88.5L182.5 83L321 66Z" fill="#FAFFFF"/>
<path d="M182.5 83L160 124L330 138.5L182.5 83Z" fill="#D3EFEF"/>
<path d="M301.5 88.5L330 138.5L182.5 83L301.5 88.5Z" fill="#E8F5F5"/>
<path d="M321 66L330 138.5L301.5 88.5L321 66Z" fill="#E9FEFE"/>
<path d="M431.5 124.5L330 138.5L450.5 112.5L431.5 124.5Z" fill="#C4E0E0"/>
<path d="M330 138.5L301.5 187L160 124L330 138.5Z" fill="#A8CCC9"/>
<path d="M179.5 55.5L182.5 83L321 66L179.5 55.5Z" fill="#E8F5F5"/>
<path d="M431.5 124.5L301.5 187L330 138.5L431.5 124.5Z" fill="#9AC3C1"/>
<path d="M450.5 112.5L321 66L483 92L450.5 112.5Z" fill="#4B6364"/>
<path d="M289 187L229 186.5L246 176L289 187Z" fill="#0D2329"/>
<path d="M321 66L450.5 112.5L330 138.5L321 66Z" fill="#D9EBEB"/>
<path d="M450.5 112.5L483 92L417.5 81.5L450.5 112.5Z" fill="#2D3B3B"/>
<path d="M55.5 141V160L149 186L55.5 141Z" fill="#182B32"/>
<path d="M74 119L55.5 141L149 186L74 119Z" fill="#344343"/>
<path d="M54 159.5L149 186L24.5 173.5L54 159.5Z" fill="#0E1E24"/>
<path d="M182.5 83L179.5 55.5L64.5 110L182.5 83Z" fill="#E8FFFF"/>
<path d="M35 155.5L0.5 175L56 113L35 155.5Z" fill="#081015"/>
<path d="M35 155.5L25 174L55.5 160L35 155.5Z" fill="#162325"/>
<path d="M35 155.5L0.5 175L25.5 173.5L35 155.5Z" fill="#111619"/>
<path d="M25.5 173.5L0 183L0.5 175L25.5 173.5Z" fill="#203235"/>
<path d="M56 112.5L55.5 160L35 155.5L56 112.5Z" fill="#111619"/>
<path d="M56 113L33.5 110L103.5 84L56 113Z" fill="#273537"/>
<path d="M56 113L0.5 175L33.5 110L56 113Z" fill="#273537"/>
<path d="M55.5 141L56 113L103.5 84L55.5 141Z" fill="#081015"/>
<path d="M256 237.5L147.5 160L235 209L256 237.5Z" fill="#15252A"/>
<path d="M227.5 180.5L246 176L229 186.5L227.5 180.5Z" fill="#0E1E24"/>
<path d="M25.5 173.5L15.5 189.5L149 186L25.5 173.5Z" fill="#D9EBEB"/>
<path d="M229 49L179.5 55.5L321 66L229 49Z" fill="#D9EBEB"/>
<path d="M226.5 176.5L147.5 161L235 210L226.5 176.5Z" fill="#344343"/>
</svg>
